<svg width="24" height="24" viewBox="0 0 24 24" fill="none" xmlns="http://www.w3.org/2000/svg">
<path d="M11.9053 4.95117H11.9033C11.9006 4.95091 11.8987 4.95033 11.8975 4.9502L11.9053 4.95117ZM14.9229 2.33105C14.7931 2.85763 14.5355 3.44395 14.0342 3.94531C13.5911 4.38839 13.1744 4.6336 12.834 4.77246C12.9498 4.27101 13.1913 3.70124 13.6797 3.21289C14.1056 2.787 14.541 2.51095 14.9229 2.33105Z" fill="black" stroke="black" stroke-width="2.02969"/>
<path d="M11.9059 7.20839C10.8202 7.20097 10.1532 6.26347 8.30408 6.26347C6.64026 6.26347 4.97234 7.33695 4.26314 8.37565C3.55722 9.40951 2.9458 10.5434 2.9458 12.8446C2.9458 15.1458 4.05379 19.1033 6.77833 21.7825C7.24492 22.2413 7.86257 22.5862 8.56719 22.6075C9.83451 22.6459 10.6127 21.6972 12.2135 21.6972C13.8143 21.6972 14.296 22.6075 15.7412 22.6075C16.3984 22.6075 17.1478 22.3082 17.8756 21.5342C18.8094 20.5411 19.9682 18.6497 20.5584 16.8355C20.5584 16.8355 17.6027 15.694 17.6384 12.4036C17.6681 9.67631 19.9841 8.33488 19.9841 8.33488C19.9841 8.33488 18.6315 6.17822 15.756 6.17822C13.7698 6.19307 12.8805 7.21506 11.9059 7.20839Z" fill="black"/>
</svg>
