<svg width="24" height="24" viewBox="0 0 24 24" fill="none" xmlns="http://www.w3.org/2000/svg">
<path d="M23.5674 12.0555C23.5674 11.2545 23.5011 10.4491 23.3598 9.66113H12.021V14.1987H18.5142C18.2447 15.6622 17.379 16.9567 16.1113 17.7794V20.7236H19.9851C22.2599 18.6713 23.5674 15.6405 23.5674 12.0555Z" fill="#4285F4"/>
<path d="M12.0213 23.5684C15.2634 23.5684 17.9976 22.5249 19.9897 20.7238L16.1159 17.7795C15.0382 18.4983 13.6468 18.9053 12.0257 18.9053C8.88951 18.9053 6.23041 16.8313 5.27631 14.043H1.27881V17.0781C3.31952 21.0571 7.47604 23.5684 12.0213 23.5684Z" fill="#34A853"/>
<path d="M5.27184 14.0428C4.76829 12.5794 4.76829 10.9947 5.27184 9.53124V6.49609H1.27876C-0.426252 9.82566 -0.426252 13.7484 1.27876 17.078L5.27184 14.0428Z" fill="#FBBC04"/>
<path d="M12.0213 4.66392C13.7351 4.63795 15.3915 5.27009 16.6327 6.43046L20.0648 3.06625C17.8916 1.06591 15.0072 -0.0338438 12.0213 0.000794069C7.47603 0.000794069 3.31952 2.51204 1.27881 6.4954L5.27189 9.53055C6.22157 6.73787 8.8851 4.66392 12.0213 4.66392Z" fill="#FE2C25"/>
</svg>
