<svg width="249" height="281" viewBox="0 0 249 281" fill="none" xmlns="http://www.w3.org/2000/svg">
<path d="M32.8002 230.045V237.022H21.0114V269.448H12.7245V237.022H0.882158V230.045H32.8002ZM47.7616 239.615C47.9042 239.615 48.02 239.624 48.1092 239.641C48.2161 239.641 48.4388 239.65 48.7775 239.668V247.474C48.2963 247.421 47.8686 247.385 47.4943 247.367C47.1201 247.349 46.8171 247.34 46.5854 247.34C43.5201 247.34 41.4618 248.338 40.4103 250.334C39.8222 251.457 39.5282 253.186 39.5282 255.52V269.448H31.8561V240.31H39.1272V245.389C40.3034 243.446 41.3281 242.119 42.2014 241.406C43.6271 240.212 45.4805 239.615 47.7616 239.615ZM67.2407 255.28C66.7596 255.583 66.2695 255.832 65.7705 256.028C65.2893 256.206 64.621 256.376 63.7656 256.536L62.0547 256.857C60.4508 257.142 59.3013 257.49 58.6063 257.9C57.4301 258.595 56.842 259.673 56.842 261.134C56.842 262.435 57.1984 263.38 57.9112 263.968C58.6419 264.538 59.5241 264.823 60.5577 264.823C62.1973 264.823 63.7032 264.342 65.0754 263.38C66.4655 262.417 67.1873 260.662 67.2407 258.113V255.28ZM62.6161 251.724C64.024 251.546 65.0309 251.323 65.6368 251.056C66.7239 250.593 67.2675 249.871 67.2675 248.891C67.2675 247.697 66.8487 246.877 66.0111 246.431C65.1913 245.968 63.9794 245.736 62.3755 245.736C60.5755 245.736 59.3013 246.182 58.5528 247.073C58.0182 247.732 57.6617 248.623 57.4835 249.746H50.1322C50.2926 247.198 51.0055 245.104 52.2708 243.464C54.2846 240.898 57.7419 239.615 62.6428 239.615C65.8328 239.615 68.6664 240.247 71.1436 241.513C73.6208 242.778 74.8594 245.166 74.8594 248.677V262.043C74.8594 262.97 74.8772 264.092 74.9128 265.411C74.9663 266.409 75.1178 267.086 75.3673 267.443C75.6168 267.799 75.991 268.093 76.49 268.325V269.448H68.2031C67.9714 268.86 67.811 268.307 67.7219 267.79C67.6328 267.274 67.5615 266.685 67.5081 266.026C66.4566 267.167 65.2447 268.138 63.8725 268.94C62.2329 269.884 60.3795 270.357 58.3122 270.357C55.6747 270.357 53.4915 269.608 51.7629 268.111C50.052 266.596 49.1966 264.458 49.1966 261.695C49.1966 258.113 50.5777 255.52 53.3401 253.916C54.8549 253.043 57.0826 252.419 60.0231 252.045L62.6161 251.724ZM87.3881 236.835H79.6626V229.804H87.3881V236.835ZM79.6626 240.31H87.3881V269.448H79.6626V240.31ZM108.845 239.615C111.857 239.615 114.317 240.408 116.223 241.994C118.148 243.562 119.111 246.173 119.111 249.826V269.448H111.305V251.724C111.305 250.192 111.1 249.016 110.69 248.196C109.941 246.699 108.516 245.95 106.413 245.95C103.829 245.95 102.055 247.046 101.093 249.238C100.594 250.397 100.345 251.876 100.345 253.676V269.448H92.7527V240.363H100.104V244.614C101.084 243.117 102.011 242.038 102.884 241.379C104.452 240.203 106.44 239.615 108.845 239.615ZM135.569 245.817C133.805 245.817 132.432 246.369 131.452 247.474C130.49 248.579 129.884 250.076 129.634 251.965H141.477C141.352 249.951 140.737 248.427 139.632 247.394C138.545 246.342 137.191 245.817 135.569 245.817ZM135.569 239.535C137.993 239.535 140.176 239.989 142.118 240.898C144.061 241.807 145.665 243.241 146.93 245.202C148.071 246.93 148.81 248.935 149.149 251.216C149.345 252.553 149.425 254.478 149.389 256.991H129.447C129.554 259.913 130.472 261.963 132.201 263.139C133.252 263.87 134.517 264.235 135.997 264.235C137.565 264.235 138.839 263.789 139.819 262.898C140.354 262.417 140.826 261.749 141.236 260.893H149.015C148.819 262.622 147.919 264.378 146.315 266.16C143.82 268.993 140.327 270.41 135.836 270.41C132.129 270.41 128.859 269.216 126.026 266.828C123.192 264.44 121.775 260.555 121.775 255.173C121.775 250.129 123.049 246.262 125.598 243.571C128.164 240.88 131.488 239.535 135.569 239.535ZM168.28 239.615C168.423 239.615 168.539 239.624 168.628 239.641C168.735 239.641 168.958 239.65 169.296 239.668V247.474C168.815 247.421 168.387 247.385 168.013 247.367C167.639 247.349 167.336 247.34 167.104 247.34C164.039 247.34 161.981 248.338 160.929 250.334C160.341 251.457 160.047 253.186 160.047 255.52V269.448H152.375V240.31H159.646V245.389C160.822 243.446 161.847 242.119 162.72 241.406C164.146 240.212 165.999 239.615 168.28 239.615ZM172.255 269.448V230.045H180.408V245.068H195.806V230.045H203.986V269.448H195.806V251.858H180.408V269.448H172.255ZM227.127 263.567C228.072 263.567 228.981 263.451 229.854 263.219C230.335 263.094 230.95 262.872 231.698 262.551L227.715 258.755L231.966 254.317L235.949 258.113C236.573 256.83 237.009 255.707 237.259 254.745C237.651 253.302 237.847 251.617 237.847 249.693C237.847 245.273 236.938 241.86 235.12 239.454C233.32 237.031 230.683 235.819 227.207 235.819C223.946 235.819 221.344 236.977 219.402 239.294C217.459 241.611 216.488 245.077 216.488 249.693C216.488 255.093 217.878 258.96 220.658 261.294C222.458 262.809 224.614 263.567 227.127 263.567ZM246.08 249.105C246.08 252.615 245.653 255.556 244.797 257.926C244.102 260.19 243.077 262.07 241.723 263.567L246.267 267.817L241.964 272.308L237.205 267.817C235.762 268.69 234.514 269.305 233.463 269.662C231.698 270.25 229.587 270.544 227.127 270.544C221.995 270.544 217.753 269.011 214.403 265.946C210.34 262.257 208.308 256.839 208.308 249.693C208.308 242.493 210.393 237.048 214.563 233.359C217.967 230.348 222.2 228.842 227.261 228.842C232.358 228.842 236.635 230.437 240.092 233.627C244.084 237.316 246.08 242.475 246.08 249.105Z" fill="white"/>
<path d="M101.082 85.4106L109.963 76.2688L128.246 94.03C130.127 96.1195 133.209 94.9006 134.515 94.03L195.895 31.3434C197.776 29.6718 200.51 30.6469 201.642 31.3434L208.172 37.3509C209.634 39.2315 208.781 41.617 208.172 42.5748L134.515 115.187C132.425 117.067 129.813 115.97 128.769 115.187L101.082 89.0673V85.4106Z" fill="white"/>
<rect x="56.4178" y="134.254" width="26.1194" height="67.9104" rx="7.31343" fill="white"/>
<rect width="26.1194" height="67.9104" rx="7.31343" transform="matrix(-1 0 0 1 202.687 134.254)" fill="white"/>
<path d="M35.5223 154.104C35.5223 151.508 37.6273 149.403 40.2238 149.403H50.6716V187.015H40.2238C37.6273 187.015 35.5223 184.91 35.5223 182.313V154.104Z" fill="white"/>
<path d="M223.582 154.104C223.582 151.508 221.477 149.403 218.881 149.403H208.433V187.015H218.881C221.477 187.015 223.582 184.91 223.582 182.313V154.104Z" fill="white"/>
<rect x="88.2836" y="160.896" width="82.5373" height="16.194" fill="white"/>
<rect x="77.8358" y="65.8208" width="59.0299" height="30.8209" transform="rotate(90 77.8358 65.8208)" fill="white"/>
<path d="M125.373 36.3062H94.5522C94.6393 48.9305 94.8134 75.0151 94.8134 78.3584C94.8134 81.7017 97.5995 79.7514 98.9925 78.3584L100.037 77.3136L106.567 69.739C109.075 67.0226 112.488 68.6071 113.881 69.739L122.239 78.8808C124.119 81.3882 125.112 79.9256 125.373 78.8808V36.3062Z" fill="white"/>
<path d="M94.5522 94.5522L111.791 110.224L127.463 124.851H94.5522V94.5522Z" fill="white"/>
<path d="M141.828 74.1792L158.806 57.9852L174.478 43.3583L173.955 9.15527e-05L141.567 0.261284L141.828 74.1792Z" fill="white"/>
<path d="M172.91 124.59V88.0225L142.089 117.276V124.59H172.91Z" fill="white"/>
</svg>
